PathFileType	3	(X/Y/Z)	D:\Vicon Database\Healthy Subjects\S0040\Jan. 30, 2020\Force Plate Walk 2.trc
DataRate	CameraRate	NumFrames	NumMarkers	Units	OrigDataRate	OrigDataStartFrame	OrigNumFrames
100.0	100.0	4	53	mm	100.0	268	306	
Frame#	Time	right_foot_cluster2			right_foot_cluster3			sternum_cluster1			sternum_cluster2			sternum_cluster3			left_asis			right_asis			left_psis			right_psis			sacrum_cluster1			sacrum_cluster2			sacrum_cluster3			left_lat_femoral_epicondyle			left_anterior_thigh15			left_anterior_thigh25			left_anterior_thigh50			left_lateral_thigh25			left_lateral_thigh50			left_thigh_cluster1			left_thigh_cluster2			left_thigh_cluster3			left_fibular_head			left_tibial_tuberosity			left_anterior_shank30			left_lateral_malleolus			left_shank_cluster1			left_shank_cluster2			left_shank_cluster3			left_heel			left_metatarsal2			left_foot_cluster1			left_foot_cluster2			left_foot_cluster3			right_lat_femoral_epicondyle			right_anterior_thigh15			right_anterior_thigh25			right_anterior_thigh50			right_lateral_thigh25			right_lateral_thigh50			right_thigh_cluster1			right_thigh_cluster2			right_thigh_cluster3			right_fibular_head			right_tibial_tuberosity			right_lateral_distal_shank			right_anterior_shank30			right_lateral_malleolus			right_shank_cluster1			right_shank_cluster2			right_shank_cluster3			right_heel			right_metatarsal2			right_foot_cluster1			
		X1	Y1	Z1	X2	Y2	Z2	X3	Y3	Z3	X4	Y4	Z4	X5	Y5	Z5	X6	Y6	Z6	X7	Y7	Z7	X8	Y8	Z8	X9	Y9	Z9	X10	Y10	Z10	X11	Y11	Z11	X12	Y12	Z12	X13	Y13	Z13	X14	Y14	Z14	X15	Y15	Z15	X16	Y16	Z16	X17	Y17	Z17	X18	Y18	Z18	X19	Y19	Z19	X20	Y20	Z20	X21	Y21	Z21	X22	Y22	Z22	X23	Y23	Z23	X24	Y24	Z24	X25	Y25	Z25	X26	Y26	Z26	X27	Y27	Z27	X28	Y28	Z28	X29	Y29	Z29	X30	Y30	Z30	X31	Y31	Z31	X32	Y32	Z32	X33	Y33	Z33	X34	Y34	Z34	X35	Y35	Z35	X36	Y36	Z36	X37	Y37	Z37	X38	Y38	Z38	X39	Y39	Z39	X40	Y40	Z40	X41	Y41	Z41	X42	Y42	Z42	X43	Y43	Z43	X44	Y44	Z44	X45	Y45	Z45	X46	Y46	Z46	X47	Y47	Z47	X48	Y48	Z48	X49	Y49	Z49	X50	Y50	Z50	X51	Y51	Z51	X52	Y52	Z52	X53	Y53	Z53	
268	2.67	3650.1235	105.97849	-120.27344	3650.2366	109.53941	-157.7473	3586.863	1448.4998	-80.751022	3577.728	1419.326	-71.41095	3577.2029	1422.0062	-109.27409	3638.9475	1066.2396	33.739902	3628.1951	1079.6426	-212.77806																3604.7524	550.63129	67.422531	3516.3064	636.72797	30.470335	3526.8767	727.01288	40.034447	3572.9607	859.92261	43.392143	3640.7402	691.03027	80.204361	3674.5137	836.46539	100.84139	3666.5884	791.56738	107.8119	3662.9814	761.37512	104.78794	3630.635	778.05005	113.92766	3619.9839	485.27911	79.156807	3572.2856	446.60425	28.191355	3762.1926	274.45554	12.382537	3878.6721	221.72925	38.190948	3610.3455	400.82663	-0.57108957	3626.6516	378.43381	8.2682924	3634.0625	385.93317	-28.827457	3953.6956	245.29277	-6.423316	3791.7261	98.87323	10.308121	3801.8445	174.98972	17.245672	3799.2725	145.26544	27.274765	3786.7708	147.65164	-9.5528021	3685.1025	534.0376	-214.18817	3603.5178	624.15546	-158.65724	3589.2036	703.26208	-161.72632	3588.9924	832.09937	-175.71944	3684.4688	693.74573	-243.94135	3685.2388	841.23151	-275.91599	3693.7795	787.36047	-281.10416	3680.0493	761.77466	-275.3392	3720.4236	760.28217	-273.61877	3700.6653	466.80917	-215.5258	3647.7498	455.68521	-168.20403	3745.3496	201.01031	-190.15216	3699.5222	211.50385	-143.97325	3760.9451	100.81807	-171.6685	3668.0627	393.00439	-110.90517	3677.5078	366.65668	-103.26157	3652.9414	360.56949	-130.45143	3836.3235	66.207542	-136.61293	3617.2153	73.090683	-130.75063	3675.1338	118.59248	-129.22394
269	2.68	3650.0295	105.92281	-120.03837	3650.0356	109.52555	-157.84837	3575.6697	1448.6536	-80.459991	3566.2739	1420.01	-71.672302	3565.8098	1422.4373	-109.46667	3628.2314	1067.5345	33.252926	3616.79	1079.9922	-213.08681																3583.7957	554.16699	67.29985	3497.5703	642.76465	30.22657	3510.5137	732.56323	39.540527	3559.7878	864.23798	42.742779	3623.5249	694.09827	80.491928	3660.4531	838.25922	101.20293	3651.7776	793.62463	107.99758	3646.9543	763.41779	105.37948	3613.8931	780.41785	113.60978	3597.6646	488.03488	78.432991	3548.1877	451.79184	27.893856	3730.25	271.11938	11.89524	3844.6746	212.98277	37.363708	3583.5149	403.80951	-1.1651456	3599.7759	380.63483	7.6047974	3607.0166	387.87885	-29.32328	3921.0947	231.69792	-7.6183934	3749.6433	96.290588	9.6610994	3765.1033	171.35405	16.407373	3759.9138	141.78656	26.634172	3748.6113	145.06863	-10.491034	3682.7937	534.46844	-213.77052	3598.5742	623.15869	-158.52681	3583.2053	702.22327	-161.58464	3580.739	830.56708	-175.78085	3678.8984	693.78674	-243.86473	3676.7468	841.27649	-275.66412	3686.7024	786.81335	-280.56738	3673.8689	761.50952	-275.44135	3713.4077	761.36188	-273.41101	3698.7007	466.94714	-214.77534	3646.2039	455.60495	-168.0343	3744.365	201.30478	-190.27518	3698.9734	211.72812	-143.80113	3760.8643	101.35561	-171.55551	3666.8723	393.20801	-110.74799	3676.2539	366.82153	-103.00654	3651.6421	360.88004	-130.11057	3836.3193	66.699295	-136.57455	3616.9956	72.974922	-130.84142	3675.0002	118.48438	-129.29604
270	2.69	3650.4287	105.35908	-120.07986	3649.7319	109.44166	-157.75111	3564.0981	1449.769	-80.945099	3554.8745	1420.4845	-71.616486	3554.2646	1422.7042	-109.23029	3617.2361	1068.6093	33.118202	3604.98	1080.5385	-213.9818																3563.512	557.70935	67.172737	3479.355	648.42834	29.668718	3494.5535	738.02826	38.915833	3546.928	868.06726	41.92078	3606.7964	697.2002	81.425858	3646.6572	840.85706	101.98772	3636.5205	796.25751	109.06042	3631.1455	765.79779	106.24834	3598.9045	784.36639	114.43305	3575.7712	490.62009	77.810127	3523.6963	456.32758	27.712862	3697.958	267.4075	11.213598	3809.8101	203.92097	36.699112	3557.9807	406.59796	-1.2074143	3572.4619	382.87888	7.674161	3580.2568	389.42761	-29.574352	3887.3381	217.75047	-8.4466543	3707.6418	93.170921	9.6651983	3728.4338	166.91025	15.808575	3720.4016	138.42691	25.734575	3710.0498	141.89198	-11.087867	3680.5723	534.78906	-213.54143	3594.9106	621.81445	-158.2475	3577.7739	700.41132	-161.23056	3572.3813	829.1745	-175.7009	3673.3918	693.95685	-243.71754	3668.2327	840.88367	-274.84103	3679.8774	787.13007	-280.58612	3666.5608	761.67224	-275.91129	3706.3794	762.07648	-273.08377	3697.1431	467.29755	-214.55374	3644.657	455.5083	-167.86218	3743.6257	201.7061	-190.05632	3698.1677	212.179	-143.44443	3760.5896	101.4593	-171.22131	3665.5437	393.37628	-110.52756	3675.0896	366.89612	-102.80231	3650.531	361.18533	-129.92393	3836.772	67.494698	-136.21112	3616.7756	72.792458	-130.72643	3674.686	118.38525	-129.24915
271	2.7	3650.3245	105.13424	-119.98228	3649.4807	109.41698	-157.59856	3552.636	1449.8485	-80.726143	3543.4089	1420.585	-71.655746	3542.5435	1423.5906	-109.42201	3605.9441	1070.0507	33.298859	3594.0376	1079.906	-213.58704																3543.8525	560.97943	66.964417	3461.7939	653.98553	28.921803	3479.0088	743.37866	38.219002	3534.2336	871.64166	41.2603	3589.8169	700.27985	82.385452	3632.9897	843.25787	102.91319	3621.4329	798.39496	110.33551	3615.4307	768.30432	107.71584	3583.342	787.37299	115.08948	3554.3176	492.80066	77.202019	3500.813	460.52383	27.07757	3665.3706	263.61145	10.826871	3774.2161	194.95831	36.178513	3532.6528	409.2218	-1.398068	3545.7322	384.94141	7.4426117	3553.8345	391.40497	-29.84083	3852.353	203.23869	-9.2079229	3665.4319	90.692665	9.2070427	3690.9436	162.48634	15.450696	3681.1582	134.52805	24.986242	3670.8987	138.68912	-11.603478	3678.406	534.98779	-213.5569	3590.6423	620.76697	-157.87067	3572.0945	699.04938	-160.77071	3563.9937	827.54138	-175.59714	3667.616	693.85376	-243.49051	3659.5024	840.4101	-275.20096	3672.1675	786.79071	-280.36597	3659.634	761.69843	-275.30579	3699.293	762.54529	-272.87491	3696.019	467.83527	-214.79861	3642.876	455.52179	-167.71059	3743.5454	202.38242	-189.75804	3698.3433	212.19278	-143.27907	3760.4673	101.64561	-171.28796	3664.167	393.39584	-110.52105	3673.4719	366.97003	-102.82056	3649.313	361.29617	-129.68849	3836.1021	67.165154	-136.33766	3616.6345	72.681519	-130.60963	3674.416	118.31729	-129.01813
